/* XPM */
static char * BottleCaps32_xpm[] = {
"32 32 433 2",
"  	c None",
". 	c #B28F63",
"+ 	c #C8A274",
"@ 	c #C69962",
"# 	c #C59963",
"$ 	c #C59861",
"% 	c #C8A478",
"& 	c #C39760",
"* 	c #C49863",
"= 	c #C49963",
"- 	c #C49862",
"; 	c #C39862",
"> 	c #C49A67",
", 	c #C09F77",
"' 	c #D5AD79",
") 	c #E3AB66",
"! 	c #D38019",
"~ 	c #D3801B",
"{ 	c #D3811C",
"] 	c #D3811B",
"^ 	c #D07A10",
"/ 	c #DD9D4E",
"( 	c #EECB9E",
"_ 	c #D78D30",
": 	c #D17D15",
"< 	c #D17B11",
"[ 	c #E0A051",
"} 	c #E0B37D",
"| 	c #B9966D",
"1 	c #C29C6C",
"2 	c #D7913A",
"3 	c #E1A050",
"4 	c #DD9A48",
"5 	c #D17A0F",
"6 	c #D3801A",
"7 	c #D27D14",
"8 	c #D48422",
"9 	c #ECC28F",
"0 	c #F6D7B1",
"a 	c #E6B271",
"b 	c #D17A10",
"c 	c #D88D30",
"d 	c #E2A65B",
"e 	c #D98F33",
"f 	c #CE9F65",
"g 	c #AF8F67",
"h 	c #D39B55",
"i 	c #D57F15",
"j 	c #D5892A",
"k 	c #E1A965",
"l 	c #D68A2D",
"m 	c #D17E17",
"n 	c #D3821F",
"o 	c #D3821E",
"p 	c #D2811C",
"q 	c #D07B11",
"r 	c #E3AF6E",
"s 	c #F2CFA6",
"t 	c #F1C999",
"u 	c #F0CCA0",
"v 	c #DA9643",
"w 	c #D07A11",
"x 	c #D38320",
"y 	c #D2811D",
"z 	c #D27F19",
"A 	c #E1A863",
"B 	c #DA9541",
"C 	c #D2790C",
"D 	c #D69645",
"E 	c #C3A178",
"F 	c #CA9E68",
"G 	c #D88C2E",
"H 	c #D27E17",
"I 	c #D07C14",
"J 	c #DC9D4E",
"K 	c #DFA359",
"L 	c #D17D16",
"M 	c #DA9844",
"N 	c #F0CEA2",
"O 	c #F0C897",
"P 	c #EDC089",
"Q 	c #F2CEA3",
"R 	c #E8BC85",
"S 	c #D2821F",
"T 	c #D07B12",
"U 	c #DB9846",
"V 	c #E0A55C",
"W 	c #D78622",
"X 	c #D09C5C",
"Y 	c #BC976C",
"Z 	c #D7984B",
"` 	c #D37F16",
" .	c #D2811E",
"..	c #D3831F",
"+.	c #D9933C",
"@.	c #D17C14",
"#.	c #D48524",
"$.	c #EAC18D",
"%.	c #F2CDA1",
"&.	c #EEC28C",
"*.	c #EEC592",
"=.	c #EFC490",
"-.	c #F2D1A9",
";.	c #DEA156",
">.	c #D58829",
",.	c #E1AA65",
"'.	c #D78E33",
").	c #D17C13",
"!.	c #D8933D",
"~.	c #C69E6D",
"{.	c #CF9D5F",
"].	c #D88621",
"^.	c #D2801C",
"/.	c #D38422",
"(.	c #D9943D",
"_.	c #E2AB66",
":.	c #E3AD6B",
"<.	c #F3D4AE",
"[.	c #EEC490",
"}.	c #EFC592",
"|.	c #EFC593",
"1.	c #EEC390",
"2.	c #F1CB9D",
"3.	c #EEC899",
"4.	c #D68B2F",
"5.	c #CF790E",
"6.	c #DEA053",
"7.	c #DEA256",
"8.	c #D38321",
"9.	c #D28220",
"0.	c #D58118",
"a.	c #D49C56",
"b.	c #B5936A",
"c.	c #C09259",
"d.	c #D88D31",
"e.	c #CF7609",
"f.	c #CF780C",
"g.	c #DD9D50",
"h.	c #D78F35",
"i.	c #EDC18B",
"j.	c #EEC28D",
"k.	c #EDC08A",
"l.	c #F2D0A7",
"m.	c #E1A862",
"n.	c #D5882A",
"o.	c #DEA35A",
"p.	c #D07C15",
"q.	c #CF7910",
"r.	c #D07B13",
"s.	c #CE770D",
"t.	c #D58521",
"u.	c #C7975B",
"v.	c #B59166",
"w.	c #E1B680",
"x.	c #DC9740",
"y.	c #DB9947",
"z.	c #DB9847",
"A.	c #D99540",
"B.	c #DB9A48",
"C.	c #E8BF8A",
"D.	c #EECEA4",
"E.	c #F5D9B7",
"F.	c #F3D1A8",
"G.	c #F3D3AB",
"H.	c #F3D2AB",
"I.	c #F3D3AC",
"J.	c #F4D4AE",
"K.	c #F5DDC0",
"L.	c #EDC38E",
"M.	c #E6AB60",
"N.	c #DF9841",
"O.	c #E19D48",
"P.	c #E19D49",
"Q.	c #E29D48",
"R.	c #E29D49",
"S.	c #E39A41",
"T.	c #E7B270",
"U.	c #C09C72",
"V.	c #B38E62",
"W.	c #EDD1AD",
"X.	c #F1CA9B",
"Y.	c #EEC99B",
"Z.	c #EFC99B",
"`.	c #EFC99A",
" +	c #EFC89A",
".+	c #EEC89A",
"++	c #EEC898",
"@+	c #EEC696",
"#+	c #F2D5B1",
"$+	c #ECC89B",
"%+	c #E1A964",
"&+	c #E2AC68",
"*+	c #E3AD6A",
"=+	c #E4AD68",
"-+	c #E9BB83",
";+	c #D1B594",
">+	c #B18349",
",+	c #B38449",
"'+	c #B4864D",
")+	c #B4864E",
"!+	c #B5864D",
"~+	c #B6864D",
"{+	c #B6874E",
"]+	c #B38348",
"^+	c #C1945E",
"/+	c #C7A984",
"(+	c #C8A67D",
"_+	c #F3CFA3",
":+	c #F0C48F",
"<+	c #F0C693",
"[+	c #F0CA9B",
"}+	c #E2AC6A",
"|+	c #CE7507",
"1+	c #CF780D",
"2+	c #CF790F",
"3+	c #CF780E",
"4+	c #D27A0D",
"5+	c #DA953E",
"6+	c #96682F",
"7+	c #764205",
"8+	c #7A4606",
"9+	c #7B4707",
"0+	c #7B4708",
"a+	c #794404",
"b+	c #7B4607",
"c+	c #A37D50",
"d+	c #D7B790",
"e+	c #F5CD9D",
"f+	c #EEC28E",
"g+	c #EEC491",
"h+	c #EEC38F",
"i+	c #F2CFA4",
"j+	c #EBC28F",
"k+	c #D7841F",
"l+	c #DAA665",
"m+	c #8E5E24",
"n+	c #7F4B0B",
"o+	c #865213",
"p+	c #804A08",
"q+	c #A27946",
"r+	c #C2A47E",
"s+	c #B39066",
"t+	c #E6C49B",
"u+	c #F3C894",
"v+	c #F2CCA0",
"w+	c #EDC697",
"x+	c #D5892B",
"y+	c #D17F19",
"z+	c #D3811E",
"A+	c #D6821B",
"B+	c #CA9B61",
"C+	c #895B24",
"D+	c #804A0A",
"E+	c #855112",
"F+	c #845112",
"G+	c #7F4907",
"H+	c #94662F",
"I+	c #B9986F",
"J+	c #C5A57E",
"K+	c #F1C692",
"L+	c #EFC591",
"M+	c #F0C795",
"N+	c #EFC897",
"O+	c #DDA054",
"P+	c #DB8F30",
"Q+	c #B48851",
"R+	c #83531A",
"S+	c #824D0C",
"T+	c #845011",
"U+	c #814B0B",
"V+	c #885518",
"W+	c #B08C61",
"X+	c #D6B790",
"Y+	c #F3CB9A",
"Z+	c #F1CCA0",
"`+	c #D37F18",
" @	c #E1A255",
".@	c #A17138",
"+@	c #7C490A",
"@@	c #834E0E",
"#@	c #814C0C",
"$@	c #A47C4B",
"%@	c #C5A885",
"&@	c #AD8A5E",
"*@	c #E6C49C",
"=@	c #F2C894",
"-@	c #EFC491",
";@	c #EEC38E",
">@	c #E8BA81",
",@	c #D47F16",
"'@	c #D8A15E",
")@	c #966831",
"!@	c #7C4706",
"~@	c #804B0A",
"{@	c #976A33",
"]@	c #BD9D76",
"^@	c #C4A27B",
"/@	c #F0CCA1",
"(@	c #F1C691",
"_@	c #F1CC9F",
":@	c #EBC08D",
"<@	c #D58A2D",
"[@	c #D68219",
"}@	c #C89659",
"|@	c #8F642F",
"1@	c #7F4908",
"2@	c #814C0B",
"3@	c #89571A",
"4@	c #B28F64",
"5@	c #D5B58D",
"6@	c #F4CC9C",
"7@	c #EFC38F",
"8@	c #EEC797",
"9@	c #DC9B4C",
"0@	c #D17E18",
"a@	c #DE9437",
"b@	c #B8884D",
"c@	c #84541A",
"d@	c #824D0D",
"e@	c #834F0F",
"f@	c #A88152",
"g@	c #B08C60",
"h@	c #E3C29B",
"i@	c #F3C995",
"j@	c #F2D0A8",
"k@	c #E0A65E",
"l@	c #E1A152",
"m@	c #A97B42",
"n@	c #855113",
"o@	c #9B703B",
"p@	c #B99970",
"q@	c #C1A078",
"r@	c #EECBA1",
"s@	c #F1C591",
"t@	c #EEC18C",
"u@	c #E5B273",
"v@	c #D37D12",
"w@	c #D59B53",
"x@	c #9D7341",
"y@	c #7D4705",
"z@	c #865314",
"A@	c #814B0A",
"B@	c #8D5D22",
"C@	c #B49268",
"D@	c #D2B38C",
"E@	c #F2CC9C",
"F@	c #F1CA9C",
"G@	c #EABD87",
"H@	c #D17F18",
"I@	c #D1811D",
"J@	c #D8851D",
"K@	c #C89250",
"L@	c #906735",
"M@	c #814B09",
"N@	c #834E0F",
"O@	c #AA8456",
"P@	c #AA875C",
"Q@	c #E2C199",
"R@	c #F3CA97",
"S@	c #DA9743",
"T@	c #D07C16",
"U@	c #DF973C",
"V@	c #BC8C50",
"W@	c #804F13",
"X@	c #844F0F",
"Y@	c #9E7441",
"Z@	c #BD9D77",
"`@	c #C09F78",
" #	c #EDCAA0",
".#	c #F3D4AF",
"+#	c #DD9E4F",
"@#	c #DD9A47",
"##	c #B08550",
"$#	c #7B4504",
"%#	c #905F26",
"&#	c #B7956D",
"*#	c #D1B28C",
"=#	c #EFC38D",
"-#	c #F3D3AD",
";#	c #E2AA65",
">#	c #D27B10",
",#	c #D39344",
"'#	c #A37D4E",
")#	c #7B4402",
"!#	c #865315",
"~#	c #AE895D",
"{#	c #E1C19B",
"]#	c #F3C996",
"^#	c #F0C898",
"/#	c #E9BB82",
"(#	c #D48627",
"_#	c #D7831B",
":#	c #CD944D",
"<#	c #906530",
"[#	c #7D4604",
"}#	c #A17948",
"|#	c #BB9A72",
"1#	c #BF9E75",
"2#	c #EDCBA1",
"3#	c #EEC99C",
"4#	c #D58A2C",
"5#	c #DB8C2A",
"6#	c #C6965B",
"7#	c #7A4504",
"8#	c #92642B",
"9#	c #B6946B",
"0#	c #CFAF89",
"a#	c #F2CC9E",
"b#	c #F2D3AD",
"c#	c #DA9239",
"d#	c #D68A2B",
"e#	c #B48A57",
"f#	c #814E10",
"g#	c #DEBF98",
"h#	c #F7D6AD",
"i#	c #E2A457",
"j#	c #D28C36",
"k#	c #A07948",
"l#	c #BA9A70",
"m#	c #EACAA1",
"n#	c #F4C58B",
"o#	c #CE944D",
"p#	c #9E7542",
"q#	c #B4936A",
"r#	c #D0B28C",
"s#	c #F4D4AD",
"t#	c #D3A975",
"u#	c #AC875B",
"v#	c #E5D2BB",
"w#	c #E0CAAE",
"x#	c #AE895C",
"y#	c #BB9D78",
"z#	c #C5A989",
"          . + @ # # # # # # $ # % & * * = * * - ; > ,           ",
"          ' ) ! ~ { { { { ] ^ / ( _ : { { { { { < [ } |         ",
"        1 2 3 4 5 { 6 6 6 7 8 9 0 a b ! 6 6 ] 7 c d e f         ",
"      g h i j k l m n o p q r s t u v w x o y z A B C D E       ",
"      F G H I J K L y x ^ M N O P Q R S z x T U V y m W X       ",
"    Y Z `  .p ..A +.@.m #.$.%.&.*.=.-.;.^ L >.,.'.: x ).!.~.    ",
"    {.].^.x /.L (._.x ^ :.<.[.}.|.1.2.3.4.5.6.7.L 8.x 9.0.a.b.  ",
"  c.d.e.I T T T f.g.h.+.u }.i.j.&.j.k.l.m.n.o.p.q.I r.I s.t.u.  ",
"v.w.x.y.y.z.U U A.B.C.D.E.F.G.H.H.I.H.J.K.L.M.N.O.P.O.Q.R.S.T.U.",
"V.W.X.Y.Z.`. +.+++@+#+$+%+&+*+*+*+:.:.=+-+;+>+,+'+)+!+~+{+]+^+/+",
"  (+_+:+}.}.}.}.}.<+[+}+|+1+2+2+2+2+3+4+5+6+7+8+9+9+0+0+a+b+c+  ",
"    d+e+f+*.g+g+g+h+i+j+m y ........o k+l+m+n+o+o+o+o+o+p+q+r+  ",
"    s+t+u+1.}.g+g+h+v+w+x+y+o z+y y { A+B+C+D+E+F+E+E+G+H+I+    ",
"      J+u K+g+}.L+g+M+N+O+: o o o o 6 P+Q+R+S+F+T+E+U+V+W+      ",
"        X+Y+=.g+g+}.=.Z+r w o y o o `+ @.@+@T+T+E+@@#@$@%@      ",
"        &@*@=@-@*.}.;@F.>@T o o y o ,@'@)@!@E+E+T+~@{@]@        ",
"          ^@/@(@g+L+h+_@:@<@z o o  .[@}@|@1@T+E+2@3@4@          ",
"            5@6@7@}.g+L+8@9@r.x o 0@a@b@c@d@E+e@2@f@            ",
"            g@h@i@1.}.j.j@k@5.8...).l@m@!@T+n@G+o@p@            ",
"              q@r@s@g+t@<.u@@.n 9.v@w@x@y@z@A@B@C@              ",
"                D@E@;@1.F@G@4.H@I@J@K@L@M@N@T+O@                ",
"                P@Q@R@1.-@Y.S@r.T@U@V@W@X@A@Y@Z@                ",
"                  `@ #=@j..#+#2+T @###$#2@%#&#                  ",
"                    *#X.=#-#;#0@>#,#'#)#!#~#                    ",
"                      {#]#^#/#(#_#:#<#[#}#|#                    ",
"                      1#2#=@3#4#5#6#7#8#9#                      ",
"                        0#a#b#c#d#e#f#g@                        ",
"                          g#h#i#j#}#k#l#                        ",
"                          ]@m#n#o#p#q#                          ",
"                            r#s#t#u#                            ",
"                              v#w#x#                            ",
"                              y#z#                              "};
