/* XPM */
static char *_557423454443[] = {
/* columns rows colors chars-per-pixel */
"64 64 29 1 ",
"  c #217688",
". c #2F9CB4",
"X c #2F9DB5",
"o c #2F9DB6",
"O c #2F9EB6",
"+ c #2F9EB7",
"@ c #2E9FB7",
"# c #2E9FB8",
"$ c #319AB1",
"% c #309AB2",
"& c #309BB2",
"* c #309BB3",
"= c #309CB4",
"- c #2EA0B9",
"; c #2DA1BA",
": c #2DA1BB",
"> c #2EA0BA",
", c #2DA2BB",
"< c #2DA2BC",
"1 c #2CA3BD",
"2 c #2DA3BD",
"3 c #2CA3BE",
"4 c #2CA4BE",
"5 c #2CA4BF",
"6 c #2CA5BF",
"7 c #2BA5C0",
"8 c #2BA6C0",
"9 c #2BA6C1",
"0 c None",
/* pixels */
"0000000000000000000000000000000000000000000000000000000000000000",
"0000000000000000000000000000000000000000000000000000000000000000",
"0000000000000000000000000000000000000000000000000000000000000000",
"0000000000000000000000000000000000000000000000000000000000000000",
"0000000000000000000000000000000000000000000000000000000000000000",
"0000000000000000000000000000000000000000000000000000000000000000",
"0000000000000000000000000000000000000000000000000000000000000000",
"0000000000000000000000000000000000000000000000000000000000000000",
"0000000000000000000000000000000000000000000000000000000000000000",
"0000000000000000000000000000000000000000000000000000000000000000",
"0000000000000000000000000000000000000000000000000000000000000000",
"00000000000000000                                000000000000000",
"00000000000009999#*$$$$$*$$$$$$$**$$$$$$*$$$$$$$=999900000000000",
"00000000000000999<*$$$$$*$$$$$$$$$$$$$$$$$$$$$**>999000000000000",
"000000000000009999*$$$$$$$$$$$$$$$$$$$$$$$$$$$$=9999000000000000",
"000000000000000999-$$$$$$$$$$$$$$$$$$$$$$$$$$$$=9990000000000000",
"0000000000000009999**$$$$$$$$$$$$$$$$$$$$$$$$$*59990000000000000",
"0000000000000009999-*$$$$$$$$$$$$$$$$$$$$$$$$*=99990000000000000",
"00000000000000009995$$$$$$$$$$$$$$$$$$$$$$$$$$599900000000000000",
"00000000000000009999=$$$$$$$$$$$$$$$$$$$$$$$$*999900000000000000",
"00000000000000000999<*$$$$$$$$$$$$$$$$$$$$$$*=889000000000000000",
"000000000000000009999=$$$$$$$$$$$$$$$$$$$$$$*5889000000000000000",
"000000000000000000999-$$$$$$$$$$$$$$$$$$$$$$=9999000000000000000",
"0000000000000000009995*$$$$$$$$$$$$$$$$$$$$$59990000000000000000",
"0000000000000000009999-$$$$$$$$$$$$$$$$$$$$=58990000000000000000",
"00000000000000000009995*$$$$$$$$$$$$$$$$$$$+88900000000000000000",
"00000000000000000009999O$$$$$$$$$$$$$$$$$$*589900000000000000000",
"00000000000000000000999<$$$$$$$$$$$$$$$$$*=988900000000000000000",
"000000000000000000009999*$$$$$$$$$$$$$$$$$>999000000000000000000",
"000000000000000000000999-$$$$$$$$$$$$$$$*=9999000000000000000000",
"0000000000000000000009995*$$$$$$$$$$$$$$$+9990000000000000000000",
"0000000000000000000009999-$$$$$$$$$$$$$$*59990000000000000000000",
"00000000000000000000009985$$$$$$$$$$$$$$=88990000000000000000000",
"00000000000000000000009985=*$$$$$$$$$$$$>99900000000000000000000",
"00000000000000000000000988-=$$$$$$$$$$$*999900000000000000000000",
"000000000000000000000009885*$$$$$$$$$$*+999000000000000000000000",
"000000000000000000000009899<$$$$$$$$$$$5999000000000000000000000",
"0000000000000000000000009999**$$$$$$$$+5999000000000000000000000",
"0000000000000000000000009999+*$$$$$$$=26990000000000000000000000",
"0000000000000000000000000999-$$$$$$$$=88990000000000000000000000",
"00000000000000000000000009999=$$$$$$$+99900000000000000000000000",
"00000000000000000000000000999-$$$$$$*999900000000000000000000000",
"000000000000000000000000009999=*$$$$+999900000000000000000000000",
"000000000000000000000000009999-*$$$$9999000000000000000000000000",
"0000000000000000000000000009995=$$$=5899000000000000000000000000",
"0000000000000000000000000009999=$$*>8890000000000000000000000000",
"0000000000000000000000000000999<$$*98990000000000000000000000000",
"00000000000000000000000000009999=$=88890000000000000000000000000",
"00000000000000000000000000000999>*999900000000000000000000000000",
"000000000000000000000000000009999=999900000000000000000000000000",
"0000000000000000000000000000099995999000000000000000000000000000",
"0000000000000000000000000000009999999000000000000000000000000000",
"0000000000000000000000000000009999999000000000000000000000000000",
"0000000000000000000000000000000999990000000000000000000000000000",
"0000000000000000000000000000000999990000000000000000000000000000",
"0000000000000000000000000000000099900000000000000000000000000000",
"0000000000000000000000000000000099900000000000000000000000000000",
"0000000000000000000000000000000099900000000000000000000000000000",
"0000000000000000000000000000000009000000000000000000000000000000",
"0000000000000000000000000000000009000000000000000000000000000000",
"0000000000000000000000000000000000000000000000000000000000000000",
"0000000000000000000000000000000000000000000000000000000000000000",
"0000000000000000000000000000000000000000000000000000000000000000",
"0000000000000000000000000000000000000000000000000000000000000000"
};
