/* XPM */
static char * verge32_xpm[] = {
"32 32 300 2",
"  	c None",
". 	c #9AC1C2",
"+ 	c #ACCFCF",
"@ 	c #5D9598",
"# 	c #649B9D",
"$ 	c #AFD1D0",
"% 	c #CDE6E4",
"& 	c #87B7B8",
"* 	c #CDE9E7",
"= 	c #6CA6A8",
"- 	c #1A6F73",
"; 	c #9AC2C2",
"> 	c #2A777B",
", 	c #4C8F92",
"' 	c #D1E9E7",
") 	c #D5EAE9",
"! 	c #76AEAF",
"~ 	c #CAE7E5",
"{ 	c #96CCCC",
"] 	c #B3E2E1",
"^ 	c #2F8E92",
"/ 	c #399295",
"( 	c #147378",
"_ 	c #68A6A8",
": 	c #22767A",
"< 	c #05656A",
"[ 	c #9AC3C3",
"} 	c #89BBBB",
"| 	c #CEE8E6",
"1 	c #CCE8E6",
"2 	c #298185",
"3 	c #ACD7D7",
"4 	c #BBE3E2",
"5 	c #479FA1",
"6 	c #9FDCDB",
"7 	c #99DBDA",
"8 	c #379DA0",
"9 	c #2A9195",
"0 	c #90CDCE",
"a 	c #1A7D81",
"b 	c #278387",
"c 	c #BFE1E0",
"d 	c #1D787C",
"e 	c #0A6C71",
"f 	c #509698",
"g 	c #D5EBE9",
"h 	c #227B7F",
"i 	c #BFE0DF",
"j 	c #C5E6E4",
"k 	c #C3E5E4",
"l 	c #499C9E",
"m 	c #B2E1E0",
"n 	c #ACDFDE",
"o 	c #76C0C1",
"p 	c #68BEBF",
"q 	c #86D6D6",
"r 	c #7FD4D5",
"s 	c #46AFB2",
"t 	c #3AA5A8",
"u 	c #5CB7B9",
"v 	c #64B5B7",
"w 	c #21878B",
"x 	c #1D8387",
"y 	c #86C3C3",
"z 	c #1A7A7E",
"A 	c #107378",
"B 	c #17767B",
"C 	c #BADCDB",
"D 	c #227D81",
"E 	c #5EA5A7",
"F 	c #BFE4E3",
"G 	c #BCE3E2",
"H 	c #B9E3E1",
"I 	c #278A8D",
"J 	c #82C5C6",
"K 	c #A3DDDC",
"L 	c #9DDCDB",
"M 	c #7BCACB",
"N 	c #76D0D1",
"O 	c #6ED0D0",
"P 	c #4CBABC",
"Q 	c #48B4B6",
"R 	c #4BACAE",
"S 	c #2A9296",
"T 	c #278F92",
"U 	c #49A2A5",
"V 	c #B1E1E0",
"W 	c #1D8084",
"X 	c #167A7F",
"Y 	c #14787C",
"Z 	c #76B4B5",
"` 	c #C9E7E6",
" .	c #167A7E",
"..	c #9DD0D0",
"+.	c #B6E2E1",
"@.	c #B3E1E0",
"#.	c #B0E0DF",
"$.	c #70B9BB",
"%.	c #389A9D",
"&.	c #97D9D9",
"*.	c #94D9D9",
"=.	c #8ED8D7",
"-.	c #82D4D5",
";.	c #6ACFCF",
">.	c #54C3C5",
",.	c #3DA9AC",
"'.	c #349EA2",
").	c #319A9D",
"!.	c #30989B",
"~.	c #90D2D2",
"{.	c #74BCBD",
"].	c #208589",
"^.	c #1C8185",
"/.	c #1A7F83",
"(.	c #348E91",
"_.	c #BCE3E1",
":.	c #228387",
"<.	c #3D9598",
"[.	c #B1E1DF",
"}.	c #ADE0DF",
"|.	c #AADFDE",
"1.	c #A7DEDD",
"2.	c #6DBDBE",
"3.	c #62BABB",
"4.	c #8BD7D7",
"5.	c #85D5D6",
"6.	c #7FD4D4",
"7.	c #78D2D3",
"8.	c #45B1B4",
"9.	c #3EAAAD",
"0.	c #3AA6A9",
"a.	c #37A1A5",
"b.	c #63BBBC",
"c.	c #5DB3B5",
"d.	c #248B8E",
"e.	c #22888C",
"f.	c #20868A",
"g.	c #91CBCB",
"h.	c #1E8488",
"i.	c #77BDBE",
"j.	c #A8DEDD",
"k.	c #A5DDDD",
"l.	c #A1DCDC",
"m.	c #7FCBCC",
"n.	c #7FD1D2",
"o.	c #7DD3D4",
"p.	c #77D2D2",
"q.	c #71D0D1",
"r.	c #48B6B8",
"s.	c #44B1B4",
"t.	c #41ADB0",
"u.	c #43ACAF",
"v.	c #47A8AA",
"w.	c #2A9295",
"x.	c #288F93",
"y.	c #268D91",
"z.	c #238A8E",
"A.	c #55A8AA",
"B.	c #AFE0DF",
"C.	c #B9E3E2",
"D.	c #258A8E",
"E.	c #2E9195",
"F.	c #9CD8D8",
"G.	c #9CDBDB",
"H.	c #98DADA",
"I.	c #95D9D9",
"J.	c #8DD7D7",
"K.	c #6ECFD0",
"L.	c #6ACECF",
"M.	c #4FBDC0",
"N.	c #4AB9BB",
"O.	c #45B2B4",
"P.	c #359FA2",
"Q.	c #30999C",
"R.	c #2D969A",
"S.	c #2B9497",
"T.	c #299195",
"U.	c #2E9397",
"V.	c #9CD7D7",
"W.	c #ABDFDE",
"X.	c #329497",
"Y.	c #5AB0B2",
"Z.	c #9ADBDA",
"`.	c #96DAD9",
" +	c #93D9D9",
".+	c #8FD8D8",
"++	c #8CD7D7",
"@+	c #68CECF",
"#+	c #55C5C7",
"$+	c #4BBABC",
"%+	c #39A4A7",
"&+	c #36A0A3",
"*+	c #339DA1",
"=+	c #319B9E",
"-+	c #2F989C",
";+	c #2D9699",
">+	c #6EBDBF",
",+	c #A9DFDE",
"'+	c #81CDCD",
")+	c #91D8D8",
"!+	c #8AD7D6",
"~+	c #83D5D5",
"{+	c #70D0D1",
"]+	c #50BEC0",
"^+	c #3BA7AA",
"/+	c #39A4A8",
"(+	c #37A2A5",
"_+	c #359FA3",
":+	c #339DA0",
"<+	c #44A6A9",
"[+	c #98DAD9",
"}+	c #9BDBDA",
"|+	c #389DA0",
"1+	c #319A9E",
"2+	c #46A9AB",
"3+	c #88D6D6",
"4+	c #85D5D5",
"5+	c #81D4D5",
"6+	c #7AD2D3",
"7+	c #76D2D2",
"8+	c #44B1B3",
"9+	c #41AEB1",
"0+	c #3FABAE",
"a+	c #3BA6A9",
"b+	c #7DCCCD",
"c+	c #92D9D9",
"d+	c #36A1A4",
"e+	c #68C1C3",
"f+	c #7BD3D3",
"g+	c #74D1D2",
"h+	c #48B5B8",
"i+	c #45B2B5",
"j+	c #43B0B3",
"k+	c #3DA8AB",
"l+	c #59B9BB",
"m+	c #8AD7D7",
"n+	c #3BA5A8",
"o+	c #3AA5A9",
"p+	c #41AAAD",
"q+	c #7AD1D1",
"r+	c #73D1D1",
"s+	c #6FD0D0",
"t+	c #6CCFD0",
"u+	c #49B7B9",
"v+	c #47B4B7",
"w+	c #42AFB2",
"x+	c #45B0B2",
"y+	c #7DD1D2",
"z+	c #84D5D5",
"A+	c #89D6D6",
"B+	c #4AAEB1",
"C+	c #40ACAF",
"D+	c #58BCBE",
"E+	c #75D1D2",
"F+	c #6DCFD0",
"G+	c #50BEC1",
"H+	c #4DBBBE",
"I+	c #4BB9BB",
"J+	c #48B6B9",
"K+	c #46B4B6",
"L+	c #65C5C7",
"M+	c #68CACB",
"N+	c #67CECF",
"O+	c #50C0C2",
"P+	c #4EBDC0",
"Q+	c #4CBBBD",
"R+	c #53BEC0",
"S+	c #76D1D2",
"T+	c #79D2D3",
"U+	c #4FB7BA",
"V+	c #47B5B8",
"W+	c #52BDBF",
"X+	c #57C7C9",
"Y+	c #54C4C7",
"Z+	c #52C2C4",
"`+	c #66CBCD",
" @	c #7AD3D3",
".@	c #4DBABD",
"+@	c #4DBCBE",
"@@	c #5FC8C9",
"#@	c #59C9CB",
"$@	c #57C8CA",
"%@	c #56C6C8",
"&@	c #5EC8CA",
"*@	c #67CDCE",
"=@	c #54C2C4",
"-@	c #55C4C7",
";@	c #66CDCE",
">@	c #58C9CB",
",@	c #5AC9CB",
"'@	c #67CDCF",
")@	c #6ACFD0",
"!@	c #5CC8CB",
"~@	c #5FCBCD",
"{@	c #66CECF",
"]@	c #63CCCE",
"^@	c #64CCCE",
"/@	c #65CDCE",
"(@	c #5DCACC",
"_@	c #66CDCF",
"                                                                ",
"                                                                ",
"                                                                ",
"                                                                ",
"  .           +                                 @           #   ",
"    $           %     & *               =     - ;         >     ",
"    , ' )       ! ~     { ]         ^ /     ( _       : < [     ",
"      } | 1     2 3 4   5 6 7     8 9 0   a b c     d e f g     ",
"      h i j k     l m n o p q r s t u v w x y     z A B C       ",
"      D E F G H   I J K L M N O P Q R S T U V   W X Y Z `       ",
"         ...+.@.#.$.%.&.*.=.-.;.>.,.'.).!.~.{.].^./.(._.        ",
"        :.<.[.}.|.1.2.3.4.5.6.7.8.9.0.a.b.c.d.e.f.x g.4         ",
"          h.i.j.k.l.L m.n.o.p.q.r.s.t.u.v.w.x.y.z.A.B.C.        ",
"          D.E.F.6 G.H.I.J.p.K.L.M.N.O.P.Q.R.S.T.U.V.W.          ",
"          X.x.Y.Z.`. +.+++q O @+#+$+%+&+*+=+-+;+>+l.,+          ",
"            S.;+'+)+J.!+q ~+6.{+]+9.^+/+(+_+:+<+[+}+            ",
"            |+1+2+++3+4+5+o.6+7+8+9+0+,.a+%+a.b+c+Z.            ",
"              P.d+e+~+6.f+7.g+q.h+i+j+t.0+k+l+m+J.              ",
"              n+o+p+q+6+7+r+s+t+$+u+v+O.w+x+y+z+A+              ",
"              B+9.C+D+E+q.F+L.@+G+H+I+J+K+L+f+6.m+              ",
"                9+j+i+M+t+@+N+@+>.O+P+Q+R+r+S+T+                ",
"                U+V+u+W+N+N+N+@+X+Y+Z+O+`+F+q. @                ",
"                  .@+@P+@@N+N+@+#@$@%@&@*@@+F+                  ",
"                    =@Z+-@;@N+@+#@>@,@'@N+)@                    ",
"                      !@$@~@{@@+#@$@]@N+F+                      ",
"                        ^@$@/@@+#@(@;@{+                        ",
"                            (@@+#@;@                            ",
"                              _@]@                              ",
"                                                                ",
"                                                                ",
"                                                                ",
"                                                                "};
