/* XPM */
static char *_557423436136[] = {
/* columns rows colors chars-per-pixel */
"128 128 34 1 ",
"  c #2D98B0",
". c #2C99B1",
"X c #2F9CB4",
"o c #2F9DB5",
"O c #2F9DB6",
"+ c #2F9EB6",
"@ c #2F9EB7",
"# c #2E9FB7",
"$ c #2E9FB8",
"% c #319AB1",
"& c #309AB2",
"* c #309BB2",
"= c #309BB3",
"- c #309CB3",
"; c #309CB4",
": c #2EA0B9",
"> c #2DA1BA",
", c #2DA1BB",
"< c #2EA0BA",
"1 c #2EA1BA",
"2 c #2DA2BB",
"3 c #2DA2BC",
"4 c #2CA3BD",
"5 c #2DA3BD",
"6 c #2CA3BE",
"7 c #2BA5BF",
"8 c #2CA4BE",
"9 c #2CA4BF",
"0 c #2CA5BF",
"q c #2BA5C0",
"w c #2BA6C0",
"e c #2BA6C1",
"r c #2CA5C0",
"t c None",
/* pixels */
"tttttttttttttttttttttttttttttttttttttttttttttttttttttttttttttttttttttttttttttttttttttttttttttttttttttttttttttttttttttttttttttttt",
"tttttttttttttttttttttttttttttttttttttttttttttttttttttttttttttttttttttttttttttttttttttttttttttttttttttttttttttttttttttttttttttttt",
"tttttttttttttttttttttttttttttttttttttttttttttttttttttttttttttttttttttttttttttttttttttttttttttttttttttttttttttttttttttttttttttttt",
"tttttttttttttttttttttttttttttttttttttttttttttttttttttttttttttttttttttttttttttttttttttttttttttttttttttttttttttttttttttttttttttttt",
"tttttttttttttttttttttttttttttttttttttttttttttttttttttttttttttttttttttttttttttttttttttttttttttttttttttttttttttttttttttttttttttttt",
"tttttttttttttttttttttttttttttttttttttttttttttttttttttttttttttttttttttttttttttttttttttttttttttttttttttttttttttttttttttttttttttttt",
"tttttttttttttttttttttttttttttttttttttttttttttttttttttttttttttttttttttttttttttttttttttttttttttttttttttttttttttttttttttttttttttttt",
"tttttttttttttttttttttttttttttttttttttttttttttttttttttttttttttttttttttttttttttttttttttttttttttttttttttttttttttttttttttttttttttttt",
"tttttttttttttttttttttttttttttttttttttttttttttttttttttttttttttttttttttttttttttttttttttttttttttttttttttttttttttttttttttttttttttttt",
"tttttttttttttttttttttttttttttttttttttttttttttttttttttttttttttttttttttttttttttttttttttttttttttttttttttttttttttttttttttttttttttttt",
"tttttttttttttttttttttttttttttttttttttttttttttttttttttttttttttttttttttttttttttttttttttttttttttttttttttttttttttttttttttttttttttttt",
"tttttttttttttttttttttttttttttttttttttttttttttttttttttttttttttttttttttttttttttttttttttttttttttttttttttttttttttttttttttttttttttttt",
"tttttttttttttttttttttttttttttttttttttttttttttttttttttttttttttttttttttttttttttttttttttttttttttttttttttttttttttttttttttttttttttttt",
"tttttttttttttttttttttttttttttttttttttttttttttttttttttttttttttttttttttttttttttttttttttttttttttttttttttttttttttttttttttttttttttttt",
"tttttttttttttttttttttttttttttttttttttttttttttttttttttttttttttttttttttttttttttttttttttttttttttttttttttttttttttttttttttttttttttttt",
"tttttttttttttttttttttttttttttttttttttttttttttttttttttttttttttttttttttttttttttttttttttttttttttttttttttttttttttttttttttttttttttttt",
"tttttttttttttttttttttttttttttttttttttttttttttttttttttttttttttttttttttttttttttttttttttttttttttttttttttttttttttttttttttttttttttttt",
"tttttttttttttttttttttttttttttttttttttttttttttttttttttttttttttttttttttttttttttttttttttttttttttttttttttttttttttttttttttttttttttttt",
"tttttttttttttttttttttttttttttttttttttttttttttttttttttttttttttttttttttttttttttttttttttttttttttttttttttttttttttttttttttttttttttttt",
"tttttttttttttttttttttttttttttttttttttttttttttttttttttttttttttttttttttttttttttttttttttttttttttttttttttttttttttttttttttttttttttttt",
"tttttttttttttttttttttttttttttttttttttttttttttttttttttttttttttttttttttttttttttttttttttttttttttttttttttttttttttttttttttttttttttttt",
"tttttttttttttttttttttttttttttttttttttttttttttttttttttttttttttttttttttttttttttttttttttttttttttttttttttttttttttttttttttttttttttttt",
"tttttttttttttttttttttttttttttttttttttttttttttttttttttttttttttttttttttttttttttttttttttttttttttttttttttttttttttttttttttttttttttttt",
"ttttttttttttttttttttttttteeeeeeer                                            *               *   eeeeeeerttttttttttttttttttttttt",
"ttttttttttttttttttttttttteeeeeeee,*%%%%%%%%%%%%%*%%%%%%%%%%%%%%%*%%%%%%%%%%%%%%%*%%%%%%%%%%%%%%%oeeeeeeerttttttttttttttttttttttt",
"tttttttttttttttttttttttttteeeeeeer**%%%%%%%%%%%%%%%%%%%%%%%%%%%%**%%%%%%%%%%%%%%**%%%%%%%%%%%%%%6eeeeeeetttttttttttttttttttttttt",
"tttttttttttttttttttttttttteeeeeeee;*%%%%%%%%%%%%%%%%%%%%%%%%%%%%%%%%%%%%%%%%%%%%%%%%%%%%%%%%%%*=9eeeeeeetttttttttttttttttttttttt",
"ttttttttttttttttttttttttttteeeeeee9*%%%%%%%%%%%%%%%%%%%%%%%%%%%%%%%%%%%%%%%%%%%%%%%%%%%%%%%%%**$eeeeeeettttttttttttttttttttttttt",
"ttttttttttttttttttttttttttteeeeeeee;%%%%%%%%%%%%%%%%%%%%%%%%%%%%%%%%%%%%%%%%%%%%%%%%%%%%%%%%%%*reeeeeeettttttttttttttttttttttttt",
"tttttttttttttttttttttttttttteeeeeee9%%%%%%%%%%%%%%%%%%%%%%%%%%%%%%%%%%%%%%%%%%%%%%%%%%%%%%%%%%$reeeeeeettttttttttttttttttttttttt",
"tttttttttttttttttttttttttttteeeeeerr*%%%%%%%%%%%%%%%%%%%%%%%%%%%%%%%%%%%%%%%%%%%%%%%%%%%%%%%%%:reeeeeetttttttttttttttttttttttttt",
"tttttttttttttttttttttttttttteeeeeeer$%%%%%%%%%%%%%%%%%%%%%%%%%%%%%%%%%%%%%%%%%%%%%%%%%%%%%%%%*rreeeeeetttttttttttttttttttttttttt",
"ttttttttttttttttttttttttttttteeeeeeer**%%%%%%%%%%%%%%%%%%%%%%%%%%%%%%%%%%%%%%%%%%%%%%%%%%%%%*,eeeeeeettttttttttttttttttttttttttt",
"ttttttttttttttttttttttttttttteeeeeeer$**%%%%%%%%%%%%%%%%%%%%%%%%%%%%%%%%%%%%%%%%%%%%%%%%%%%%*reeeeeeettttttttttttttttttttttttttt",
"tttttttttttttttttttttttttttttteeeeeee6%*%%%%%%%%%%%%%%%%%%%%%%%%%%%%%%%%%%%%%%%%%%%%%%%%%%%%;reeeeeetttttttttttttttttttttttttttt",
"tttttttttttttttttttttttttttttteeeeeerr**%%%%%%%%%%%%%%%%%%%%%%%%%%%%%%%%%%%%%%%%%%%%%%%%%%**9reeeeeetttttttttttttttttttttttttttt",
"ttttttttttttttttttttttttttttttteeeeeee,*%%%%%%%%%%%%%%%%%%%%%%%%%%%%%%%%%%%%%%%%%%%%%%%%%%%*eeeeeeeetttttttttttttttttttttttttttt",
"ttttttttttttttttttttttttttttttteeeeeeee*%%%%%%%%%%%%%%%%%%%%%%%%%%%%%%%%%%%%%%%%%%%%%%%%%%*$eeeeeeettttttttttttttttttttttttttttt",
"ttttttttttttttttttttttttttttttteeeeeeee$%%%%%%%%%%%%%%%%%%%%%%%%%%%%%%%%%%%%%%%%%%%%%%%%%**9eeeeeeettttttttttttttttttttttttttttt",
"tttttttttttttttttttttttttttttttteeeeeee9%%%%%%%%%%%%%%%%%%%%%%%%%%%%%%%%%%%%%%%%%%%%%%%%%-;9eeeeeetttttttttttttttttttttttttttttt",
"tttttttttttttttttttttttttttttttteeeeeeee;*%%%%%%%%%%%%%%%%%%%%%%%%%%%%%%%%%%%%%%%%%%%%%%**6rrreeeetttttttttttttttttttttttttttttt",
"ttttttttttttttttttttttttttttttttteeeeeee,*%%%%%%%%%%%%%%%%%%%%%%%%%%%%%%%%%%%%%%%%%%%%%%*;rreeeeeetttttttttttttttttttttttttttttt",
"ttttttttttttttttttttttttttttttttteeeeeeer;*%%%%%%%%%%%%%%%%%%%%%%%%%%%%%%%%%%%%%%%%%%%%%*$eeeeeeettttttttttttttttttttttttttttttt",
"tttttttttttttttttttttttttttttttttteeeeeer,**%%%%%%%%%%%%%%%%%%%%%%%%%%%%%%%%%%%%%%%%%%%%*reeeeeeettttttttttttttttttttttttttttttt",
"tttttttttttttttttttttttttttttttttteeeeeerr*%%%%%%%%%%%%%%%%%%%%%%%%%%%%%%%%%%%%%%%%%%%%%oeeeeeeetttttttttttttttttttttttttttttttt",
"tttttttttttttttttttttttttttttttttteeeeeeer;*%%%%%%%%%%%%%%%%%%%%%%%%%%%%%%%%%%%%%%%%%%%%9eeeeeeetttttttttttttttttttttttttttttttt",
"ttttttttttttttttttttttttttttttttttteeeeeee9*%%%%%%%%%%%%%%%%%%%%%%%%%%%%%%%%%%%%%%%%%%%-eeeeeeeetttttttttttttttttttttttttttttttt",
"ttttttttttttttttttttttttttttttttttteeeeeeer*%%%%%%%%%%%%%%%%%%%%%%%%%%%%%%%%%%%%%%%%%%*:eeeeeeettttttttttttttttttttttttttttttttt",
"tttttttttttttttttttttttttttttttttttteeeeeee9%%%%%%%%%%%%%%%%%%%%%%%%%%%%%%%%%%%%%%%%%%*rreeeeeettttttttttttttttttttttttttttttttt",
"tttttttttttttttttttttttttttttttttttteeeeeeee-%%%%%%%%%%%%%%%%%%%%%%%%%%%%%%%%%%%%%%%%%$reeeeeetttttttttttttttttttttttttttttttttt",
"tttttttttttttttttttttttttttttttttttteeeeeeee:**%%%%%%%%%%%%%%%%%%%%%%%%%%%%%%%%%%%%%%*6reeeeeetttttttttttttttttttttttttttttttttt",
"ttttttttttttttttttttttttttttttttttttteeeeeee9*%%%%%%%%%%%%%%%%%%%%%%%%%%%%%%%%%%%%%%%*9reeeeeetttttttttttttttttttttttttttttttttt",
"ttttttttttttttttttttttttttttttttttttteeeeeeee;%*%%%%%%%%%%%%%%%%%%%%%%%%%%%%%%%%%%%%*,eeeeeeettttttttttttttttttttttttttttttttttt",
"tttttttttttttttttttttttttttttttttttttteeeeeee6%*%%%%%%%%%%%%%%%%%%%%%%%%%%%%%%%%%%%%*eeeeeeeettttttttttttttttttttttttttttttttttt",
"tttttttttttttttttttttttttttttttttttttteeeeeeee;*%%%%%%%%%%%%%%%%%%%%%%%%%%%%%%%%%%**;reeeeeetttttttttttttttttttttttttttttttttttt",
"ttttttttttttttttttttttttttttttttttttttteeeeeee,*%%%%%%%%%%%%%%%%%%%%%%%%%%%%%%%%%%**9eeeeeeetttttttttttttttttttttttttttttttttttt",
"ttttttttttttttttttttttttttttttttttttttteeeeeeee-%%%%%%%%%%%%%%%%%%%%%%%%%%%%%%%%%%%*rreeeeeetttttttttttttttttttttttttttttttttttt",
"ttttttttttttttttttttttttttttttttttttttteeeeeeee,%%%%%%%%%%%%%%%%%%%%%%%%%%%%%%%%%%%,ereeeeettttttttttttttttttttttttttttttttttttt",
"tttttttttttttttttttttttttttttttttttttttteeeeeeer*%%%%%%%%%%%%%%%%%%%%%%%%%%%%%%%***eeeeeeeettttttttttttttttttttttttttttttttttttt",
"tttttttttttttttttttttttttttttttttttttttteeeeeeee;%%%%%%%%%%%%%%%%%%%%%%%%%%%%%%%**oeeeeeeetttttttttttttttttttttttttttttttttttttt",
"ttttttttttttttttttttttttttttttttttttttttteeeeeee6*%%%%%%%%%%%%%%%%%%%%%%%%%%%%%%*%6eeeeeeetttttttttttttttttttttttttttttttttttttt",
"ttttttttttttttttttttttttttttttttttttttttteeeeeeer*%%%%%%%%%%%%%%%%%%%%%%%%%%%%%%**9reeeeeetttttttttttttttttttttttttttttttttttttt",
"tttttttttttttttttttttttttttttttttttttttttteeeeeer6**%%%%%%%%%%%%%%%%%%%%%%%%%%%%*,eeeeeeettttttttttttttttttttttttttttttttttttttt",
"tttttttttttttttttttttttttttttttttttttttttteeeeeerr**%%%%%%%%%%%%%%%%%%%%%%%%%%%%-eeeeeeeettttttttttttttttttttttttttttttttttttttt",
"tttttttttttttttttttttttttttttttttttttttttteeeeeerr:*%%%%%%%%%%%%%%%%%%%%%%%%%%%%,9eeeeeetttttttttttttttttttttttttttttttttttttttt",
"ttttttttttttttttttttttttttttttttttttttttttteeeeeer9-%%%%%%%%%%%%%%%%%%%%%%%%%%%%9eeeeeeetttttttttttttttttttttttttttttttttttttttt",
"ttttttttttttttttttttttttttttttttttttttttttteeeeeeer;%%%%%%%%%%%%%%%%%%%%%%%%%%%;eeeeeeeetttttttttttttttttttttttttttttttttttttttt",
"tttttttttttttttttttttttttttttttttttttttttttteeeeeer,%%%%%%%%%%%%%%%%%%%%%%%%%%*,eeeeeeettttttttttttttttttttttttttttttttttttttttt",
"tttttttttttttttttttttttttttttttttttttttttttteeeeeeee-**%%%%%%%%%%%%%%%%%%%%%%%*reeeeeeettttttttttttttttttttttttttttttttttttttttt",
"ttttttttttttttttttttttttttttttttttttttttttttteeeeeee,**%%%%%%%%%%%%%%%%%%%%%%%:reeeeeetttttttttttttttttttttttttttttttttttttttttt",
"ttttttttttttttttttttttttttttttttttttttttttttteeeeeeer;%%%%%%%%%%%%%%%%%%%%%%*-9reeeeeetttttttttttttttttttttttttttttttttttttttttt",
"ttttttttttttttttttttttttttttttttttttttttttttteeeeeeer;%%%%%%%%%%%%%%%%%%%%%**;ereeeeeetttttttttttttttttttttttttttttttttttttttttt",
"tttttttttttttttttttttttttttttttttttttttttttttteeeeeee9-*%%%%%%%%%%%%%%%%%%%%%,rreeeeettttttttttttttttttttttttttttttttttttttttttt",
"tttttttttttttttttttttttttttttttttttttttttttttteeeeeeee-*%%%%%%%%%%%%%%%%%%%%*reeeeeeettttttttttttttttttttttttttttttttttttttttttt",
"ttttttttttttttttttttttttttttttttttttttttttttttteeeeeer,*%%%%%%%%%%%%%%%%%%%%,eeeeeeetttttttttttttttttttttttttttttttttttttttttttt",
"ttttttttttttttttttttttttttttttttttttttttttttttteeeeeerr*%%%%%%%%%%%%%%%%%%%%9eeeeeeetttttttttttttttttttttttttttttttttttttttttttt",
"ttttttttttttttttttttttttttttttttttttttttttttttteeeeeeee,%%%%%%%%%%%%%%%%%%-;9eeeeeeetttttttttttttttttttttttttttttttttttttttttttt",
"tttttttttttttttttttttttttttttttttttttttttttttttteeeeeeer*%%%%%%%%%%%%%%%%%*2eeeeeeettttttttttttttttttttttttttttttttttttttttttttt",
"tttttttttttttttttttttttttttttttttttttttttttttttteeeeeeee;*%%%%%%%%%%%%%%%%-9eeeeeeettttttttttttttttttttttttttttttttttttttttttttt",
"ttttttttttttttttttttttttttttttttttttttttttttttttteeeeeee6%%%%%%%%%%%%%%%%%,eeeeeeetttttttttttttttttttttttttttttttttttttttttttttt",
"ttttttttttttttttttttttttttttttttttttttttttttttttteeeeeeeeo**%%%%%%%%%%%%**6reeeeeetttttttttttttttttttttttttttttttttttttttttttttt",
"tttttttttttttttttttttttttttttttttttttttttttttttttteeeeeee,%*%%%%%%%%%%%%-;rreeeeeetttttttttttttttttttttttttttttttttttttttttttttt",
"tttttttttttttttttttttttttttttttttttttttttttttttttteeeeeeer**%%%%%%%%%%%%-,eeeeeeettttttttttttttttttttttttttttttttttttttttttttttt",
"tttttttttttttttttttttttttttttttttttttttttttttttttteeeeeeer;%%%%%%%%%%%%%-7eeeeeeettttttttttttttttttttttttttttttttttttttttttttttt",
"ttttttttttttttttttttttttttttttttttttttttttttttttttteeeeeeer***%%%%%%%%%%,reeeeeetttttttttttttttttttttttttttttttttttttttttttttttt",
"ttttttttttttttttttttttttttttttttttttttttttttttttttteeeeeeer$%%%%%%%%%%%%9eeeeeeetttttttttttttttttttttttttttttttttttttttttttttttt",
"tttttttttttttttttttttttttttttttttttttttttttttttttttteeeeeee9%*%%%%%%%%%;eeeeeeeetttttttttttttttttttttttttttttttttttttttttttttttt",
"tttttttttttttttttttttttttttttttttttttttttttttttttttteeeeeeee**%%%%%%%*-2eeeeeeettttttttttttttttttttttttttttttttttttttttttttttttt",
"ttttttttttttttttttttttttttttttttttttttttttttttttttttteeeeeee,%%%%%%%%%-eeeeeeeettttttttttttttttttttttttttttttttttttttttttttttttt",
"ttttttttttttttttttttttttttttttttttttttttttttttttttttteeeeeee9*%%%%%%%%:9eeeeeetttttttttttttttttttttttttttttttttttttttttttttttttt",
"ttttttttttttttttttttttttttttttttttttttttttttttttttttteeeeeeero%%%%%%%%reeeeeeetttttttttttttttttttttttttttttttttttttttttttttttttt",
"tttttttttttttttttttttttttttttttttttttttttttttttttttttteeeeeeee%%%%%%%:eeeeeeettttttttttttttttttttttttttttttttttttttttttttttttttt",
"tttttttttttttttttttttttttttttttttttttttttttttttttttttteeeeeeeeo*%%%%%,eeeeeeettttttttttttttttttttttttttttttttttttttttttttttttttt",
"ttttttttttttttttttttttttttttttttttttttttttttttttttttttteeeeeee9*%%%%-reeeeeeettttttttttttttttttttttttttttttttttttttttttttttttttt",
"ttttttttttttttttttttttttttttttttttttttttttttttttttttttteeeeeeer-%%%%,eeeeeeetttttttttttttttttttttttttttttttttttttttttttttttttttt",
"tttttttttttttttttttttttttttttttttttttttttttttttttttttttteeeeeee,%%%*9reeeeeetttttttttttttttttttttttttttttttttttttttttttttttttttt",
"tttttttttttttttttttttttttttttttttttttttttttttttttttttttteeeeeeee-%-oeeeeeeettttttttttttttttttttttttttttttttttttttttttttttttttttt",
"tttttttttttttttttttttttttttttttttttttttttttttttttttttttteeeeeeeeo%%9eeeeeeettttttttttttttttttttttttttttttttttttttttttttttttttttt",
"ttttttttttttttttttttttttttttttttttttttttttttttttttttttttteeeeeee9*-eeeeeeeettttttttttttttttttttttttttttttttttttttttttttttttttttt",
"ttttttttttttttttttttttttttttttttttttttttttttttttttttttttteeeeeeee-,eeeeeeetttttttttttttttttttttttttttttttttttttttttttttttttttttt",
"tttttttttttttttttttttttttttttttttttttttttttttttttttttttttteeeeeee97eeeeeeetttttttttttttttttttttttttttttttttttttttttttttttttttttt",
"tttttttttttttttttttttttttttttttttttttttttttttttttttttttttteeeeeeeeeeeeeeettttttttttttttttttttttttttttttttttttttttttttttttttttttt",
"tttttttttttttttttttttttttttttttttttttttttttttttttttttttttteeeeeeeeeeeeeeettttttttttttttttttttttttttttttttttttttttttttttttttttttt",
"ttttttttttttttttttttttttttttttttttttttttttttttttttttttttttteeeeeeeeeeeeeettttttttttttttttttttttttttttttttttttttttttttttttttttttt",
"ttttttttttttttttttttttttttttttttttttttttttttttttttttttttttteeeeeeeeeeeeetttttttttttttttttttttttttttttttttttttttttttttttttttttttt",
"tttttttttttttttttttttttttttttttttttttttttttttttttttttttttttteeeeeeeeeeeetttttttttttttttttttttttttttttttttttttttttttttttttttttttt",
"tttttttttttttttttttttttttttttttttttttttttttttttttttttttttttteeeeeeeeeeettttttttttttttttttttttttttttttttttttttttttttttttttttttttt",
"ttttttttttttttttttttttttttttttttttttttttttttttttttttttttttttteeeeeeeeeettttttttttttttttttttttttttttttttttttttttttttttttttttttttt",
"ttttttttttttttttttttttttttttttttttttttttttttttttttttttttttttteeeeeeeeeettttttttttttttttttttttttttttttttttttttttttttttttttttttttt",
"ttttttttttttttttttttttttttttttttttttttttttttttttttttttttttttteeeeeeeeetttttttttttttttttttttttttttttttttttttttttttttttttttttttttt",
"tttttttttttttttttttttttttttttttttttttttttttttttttttttttttttttteeeeeeeetttttttttttttttttttttttttttttttttttttttttttttttttttttttttt",
"tttttttttttttttttttttttttttttttttttttttttttttttttttttttttttttteeeeeeettttttttttttttttttttttttttttttttttttttttttttttttttttttttttt",
"ttttttttttttttttttttttttttttttttttttttttttttttttttttttttttttttteeeeeettttttttttttttttttttttttttttttttttttttttttttttttttttttttttt",
"ttttttttttttttttttttttttttttttttttttttttttttttttttttttttttttttteeeeeettttttttttttttttttttttttttttttttttttttttttttttttttttttttttt",
"tttttttttttttttttttttttttttttttttttttttttttttttttttttttttttttttteeeetttttttttttttttttttttttttttttttttttttttttttttttttttttttttttt",
"tttttttttttttttttttttttttttttttttttttttttttttttttttttttttttttttteeeetttttttttttttttttttttttttttttttttttttttttttttttttttttttttttt",
"tttttttttttttttttttttttttttttttttttttttttttttttttttttttttttttttteeettttttttttttttttttttttttttttttttttttttttttttttttttttttttttttt",
"ttttttttttttttttttttttttttttttttttttttttttttttttttttttttttttttttteettttttttttttttttttttttttttttttttttttttttttttttttttttttttttttt",
"ttttttttttttttttttttttttttttttttttttttttttttttttttttttttttttttttteettttttttttttttttttttttttttttttttttttttttttttttttttttttttttttt",
"tttttttttttttttttttttttttttttttttttttttttttttttttttttttttttttttttttttttttttttttttttttttttttttttttttttttttttttttttttttttttttttttt",
"tttttttttttttttttttttttttttttttttttttttttttttttttttttttttttttttttttttttttttttttttttttttttttttttttttttttttttttttttttttttttttttttt",
"tttttttttttttttttttttttttttttttttttttttttttttttttttttttttttttttttttttttttttttttttttttttttttttttttttttttttttttttttttttttttttttttt",
"tttttttttttttttttttttttttttttttttttttttttttttttttttttttttttttttttttttttttttttttttttttttttttttttttttttttttttttttttttttttttttttttt",
"tttttttttttttttttttttttttttttttttttttttttttttttttttttttttttttttttttttttttttttttttttttttttttttttttttttttttttttttttttttttttttttttt",
"tttttttttttttttttttttttttttttttttttttttttttttttttttttttttttttttttttttttttttttttttttttttttttttttttttttttttttttttttttttttttttttttt",
"tttttttttttttttttttttttttttttttttttttttttttttttttttttttttttttttttttttttttttttttttttttttttttttttttttttttttttttttttttttttttttttttt",
"tttttttttttttttttttttttttttttttttttttttttttttttttttttttttttttttttttttttttttttttttttttttttttttttttttttttttttttttttttttttttttttttt",
"tttttttttttttttttttttttttttttttttttttttttttttttttttttttttttttttttttttttttttttttttttttttttttttttttttttttttttttttttttttttttttttttt"
};
