/* XPM */
static char *_557423470604[] = {
/* columns rows colors chars-per-pixel */
"32 32 26 1 ",
"  c #2C95AB",
". c #2C95AC",
"X c #2F9DB5",
"o c #2F9EB6",
"O c #2F9EB7",
"+ c #2E9FB8",
"@ c #319AB1",
"# c #309AB2",
"$ c #309BB2",
"% c #309BB3",
"& c #309CB3",
"* c #309CB4",
"= c #2EA0B9",
"- c #2DA1BA",
"; c #2EA0BA",
": c #2DA2BC",
"> c #2CA3BD",
", c #2DA3BD",
"< c #2AA4BF",
"1 c #2CA4BE",
"2 c #2CA4BF",
"3 c #2CA5BF",
"4 c #2BA5C0",
"5 c #2BA6C0",
"6 c #2BA6C1",
"7 c None",
/* pixels */
"77777777777777777777777777777777",
"77777777777777777777777777777777",
"77777777777777777777777777777777",
"77777777777777777777777777777777",
"77777777777777777777777777777777",
"77777777777777777777777777777777",
"777777766     .         .<677777",
"777777766+@@@@@@@@@@@@@@X6677777",
"7777777762@@@@@@@@@@@@@@26777777",
"7777777766X@@@@@@@@@@@@X66777777",
"7777777776:@@@@@@@@@@@@+67777777",
"77777777766@@@@@@@@@@@@667777777",
"77777777766=@@@@@@@@@@X667777777",
"777777777766@@@@@@@@@@2677777777",
"777777777766+@@@@@@@@*6677777777",
"777777777776:@@@@@@@@=6777777777",
"7777777777766*@@@@@@&44777777777",
"7777777777776=@@@@@@O64777777777",
"77777777777764&@@@@@247777777777",
"77777777777766O@@@@%667777777777",
"777777777777762&@@@=477777777777",
"777777777777766*@@@4477777777777",
"7777777777777742@@X6477777777777",
"7777777777777746%@:6777777777777",
"7777777777777766=*66777777777777",
"77777777777777764=67777777777777",
"77777777777777764667777777777777",
"77777777777777776667777777777777",
"77777777777777776677777777777777",
"77777777777777777677777777777777",
"77777777777777777777777777777777",
"77777777777777777777777777777777"
};
