/* XPM */
static char *_557423485545[] = {
/* columns rows colors chars-per-pixel */
"16 16 17 1 ",
"  c #2F9DB5",
". c #2F9EB6",
"X c #2F9EB7",
"o c #2E9FB8",
"O c #319AB1",
"+ c #309AB2",
"@ c #309BB2",
"# c #309BB3",
"$ c #309CB4",
"% c #2DA1BA",
"& c #2DA1BB",
"* c #2DA2BB",
"= c #2CA3BD",
"- c #2CA4BE",
"; c #2BA5C0",
": c #2BA6C1",
"> c None",
/* pixels */
">>>>>>>>>>>>>>>>",
">>>>>>>>>>>>>>>>",
">>>>>>>>>>>>>>>>",
">>>>>>>>>>>>>>>>",
">>>>:.OOOOOO.:>>",
">>>>>=OOOOOO%>>>",
">>>>>:$OOOOO:>>>",
">>>>>>%OOOOo:>>>",
">>>>>>:OOOO=>>>>",
">>>>>>:.OO.:>>>>",
">>>>>>>-OO=>>>>>",
">>>>>>>:.O:>>>>>",
">>>>>>>>=.:>>>>>",
">>>>>>>>::>>>>>>",
">>>>>>>>::>>>>>>",
">>>>>>>>>>>>>>>>"
};
